<svg xmlns="http://www.w3.org/2000/svg" xmlns:xlink="http://www.w3.org/1999/xlink" width="500" zoomAndPan="magnify" viewBox="0 0 375 374.999991" height="500" preserveAspectRatio="xMidYMid meet" version="1.0"><defs><g/><clipPath id="569fd7cf21"><path d="M 9.597656 9.597656 L 365.402344 9.597656 L 365.402344 365.402344 L 9.597656 365.402344 Z M 9.597656 9.597656 " clip-rule="nonzero"/></clipPath><clipPath id="7057a891ec"><path d="M 187.5 9.597656 C 89.246094 9.597656 9.597656 89.246094 9.597656 187.5 C 9.597656 285.753906 89.246094 365.402344 187.5 365.402344 C 285.753906 365.402344 365.402344 285.753906 365.402344 187.5 C 365.402344 89.246094 285.753906 9.597656 187.5 9.597656 Z M 187.5 9.597656 " clip-rule="nonzero"/></clipPath><clipPath id="395279aa00"><path d="M 0.597656 0.597656 L 356.402344 0.597656 L 356.402344 356.402344 L 0.597656 356.402344 Z M 0.597656 0.597656 " clip-rule="nonzero"/></clipPath><clipPath id="60dd25bb8e"><path d="M 178.5 0.597656 C 80.246094 0.597656 0.597656 80.246094 0.597656 178.5 C 0.597656 276.753906 80.246094 356.402344 178.5 356.402344 C 276.753906 356.402344 356.402344 276.753906 356.402344 178.5 C 356.402344 80.246094 276.753906 0.597656 178.5 0.597656 Z M 178.5 0.597656 " clip-rule="nonzero"/></clipPath><clipPath id="9b8c4ce8be"><rect x="0" width="357" y="0" height="357"/></clipPath><clipPath id="a8934b6a71"><rect x="0" width="253" y="0" height="164"/></clipPath></defs><g clip-path="url(#569fd7cf21)"><g clip-path="url(#7057a891ec)"><g transform="matrix(1, 0, 0, 1, 9, 9)"><g clip-path="url(#9b8c4ce8be)"><g clip-path="url(#395279aa00)"><g clip-path="url(#60dd25bb8e)"><path fill="#4f39f6" d="M 0.597656 0.597656 L 356.402344 0.597656 L 356.402344 356.402344 L 0.597656 356.402344 Z M 0.597656 0.597656 " fill-opacity="1" fill-rule="nonzero"/></g></g></g></g></g></g><g transform="matrix(1, 0, 0, 1, 64, 102)"><g clip-path="url(#a8934b6a71)"><g fill="#ff00ff" fill-opacity="1"><g transform="translate(14.771403, 133.208521)"><g><path d="M 5.4375 -19.046875 L 5.4375 -95.25 L 24.5 -95.25 L 24.5 -19.046875 Z M 100.703125 -19.046875 L 100.703125 -95.25 L 119.75 -95.25 L 119.75 -19.046875 Z M 24.5 0 L 24.5 -19.046875 C 26.675781 -19.046875 28.535156 -19.835938 30.078125 -21.421875 C 31.617188 -23.015625 32.929688 -25.082031 34.015625 -27.625 C 35.109375 -30.164062 36.039062 -32.929688 36.8125 -35.921875 C 37.582031 -38.921875 38.285156 -41.828125 38.921875 -44.640625 C 39.921875 -48.628906 41.007812 -52.503906 42.1875 -56.265625 C 43.363281 -60.035156 44.789062 -63.414062 46.46875 -66.40625 C 48.144531 -69.394531 50.273438 -71.773438 52.859375 -73.546875 C 55.453125 -75.316406 58.695312 -76.203125 62.59375 -76.203125 C 66.5 -76.203125 69.765625 -75.296875 72.390625 -73.484375 C 75.023438 -71.671875 77.203125 -69.242188 78.921875 -66.203125 C 80.648438 -63.160156 82.078125 -59.753906 83.203125 -55.984375 C 84.335938 -52.222656 85.363281 -48.441406 86.28125 -44.640625 C 87.269531 -40.734375 88.304688 -36.804688 89.390625 -32.859375 C 90.484375 -28.910156 91.914062 -25.617188 93.6875 -22.984375 C 95.457031 -20.359375 97.796875 -19.046875 100.703125 -19.046875 L 100.703125 0 C 95.253906 0 90.691406 -1.109375 87.015625 -3.328125 C 83.347656 -5.554688 80.332031 -8.570312 77.96875 -12.375 C 75.613281 -16.1875 73.640625 -20.472656 72.046875 -25.234375 C 70.460938 -30.003906 69.035156 -34.972656 67.765625 -40.140625 C 67.128906 -42.859375 66.378906 -45.804688 65.515625 -48.984375 C 64.660156 -52.160156 63.6875 -54.65625 62.59375 -56.46875 C 61.414062 -54.5625 60.394531 -51.972656 59.53125 -48.703125 C 58.664062 -45.441406 57.960938 -42.585938 57.421875 -40.140625 C 56.242188 -34.972656 54.835938 -29.984375 53.203125 -25.171875 C 51.566406 -20.367188 49.546875 -16.082031 47.140625 -12.3125 C 44.742188 -8.550781 41.707031 -5.554688 38.03125 -3.328125 C 34.351562 -1.109375 29.84375 0 24.5 0 Z M 24.5 0 "/></g></g></g><g fill="#ff00ff" fill-opacity="1"><g transform="translate(139.960516, 133.208521)"><g><path d="M 24.5 -76.203125 L 24.5 -95.25 L 100.703125 -95.25 L 100.703125 -76.203125 Z M 34.015625 0 C 28.847656 0 24.085938 -1.289062 19.734375 -3.875 C 15.378906 -6.457031 11.90625 -9.925781 9.3125 -14.28125 C 6.726562 -18.632812 5.4375 -23.398438 5.4375 -28.578125 L 5.4375 -76.203125 L 24.5 -76.203125 L 24.5 -28.578125 C 24.5 -25.941406 25.445312 -23.691406 27.34375 -21.828125 C 29.25 -19.972656 31.472656 -19.046875 34.015625 -19.046875 L 100.703125 -19.046875 L 100.703125 0 Z M 33.890625 -38.109375 L 33.890625 -57.15625 L 91.171875 -57.15625 L 91.171875 -38.109375 Z M 33.890625 -38.109375 "/></g></g></g><g fill="#00ffff" fill-opacity="1"><g transform="translate(0.857644, 139.994702)"><g><path d="M 5.4375 -19.046875 L 5.4375 -95.25 L 24.5 -95.25 L 24.5 -19.046875 Z M 100.703125 -19.046875 L 100.703125 -95.25 L 119.75 -95.25 L 119.75 -19.046875 Z M 24.5 0 L 24.5 -19.046875 C 26.675781 -19.046875 28.535156 -19.835938 30.078125 -21.421875 C 31.617188 -23.015625 32.929688 -25.082031 34.015625 -27.625 C 35.109375 -30.164062 36.039062 -32.929688 36.8125 -35.921875 C 37.582031 -38.921875 38.285156 -41.828125 38.921875 -44.640625 C 39.921875 -48.628906 41.007812 -52.503906 42.1875 -56.265625 C 43.363281 -60.035156 44.789062 -63.414062 46.46875 -66.40625 C 48.144531 -69.394531 50.273438 -71.773438 52.859375 -73.546875 C 55.453125 -75.316406 58.695312 -76.203125 62.59375 -76.203125 C 66.5 -76.203125 69.765625 -75.296875 72.390625 -73.484375 C 75.023438 -71.671875 77.203125 -69.242188 78.921875 -66.203125 C 80.648438 -63.160156 82.078125 -59.753906 83.203125 -55.984375 C 84.335938 -52.222656 85.363281 -48.441406 86.28125 -44.640625 C 87.269531 -40.734375 88.304688 -36.804688 89.390625 -32.859375 C 90.484375 -28.910156 91.914062 -25.617188 93.6875 -22.984375 C 95.457031 -20.359375 97.796875 -19.046875 100.703125 -19.046875 L 100.703125 0 C 95.253906 0 90.691406 -1.109375 87.015625 -3.328125 C 83.347656 -5.554688 80.332031 -8.570312 77.96875 -12.375 C 75.613281 -16.1875 73.640625 -20.472656 72.046875 -25.234375 C 70.460938 -30.003906 69.035156 -34.972656 67.765625 -40.140625 C 67.128906 -42.859375 66.378906 -45.804688 65.515625 -48.984375 C 64.660156 -52.160156 63.6875 -54.65625 62.59375 -56.46875 C 61.414062 -54.5625 60.394531 -51.972656 59.53125 -48.703125 C 58.664062 -45.441406 57.960938 -42.585938 57.421875 -40.140625 C 56.242188 -34.972656 54.835938 -29.984375 53.203125 -25.171875 C 51.566406 -20.367188 49.546875 -16.082031 47.140625 -12.3125 C 44.742188 -8.550781 41.707031 -5.554688 38.03125 -3.328125 C 34.351562 -1.109375 29.84375 0 24.5 0 Z M 24.5 0 "/></g></g></g><g fill="#00ffff" fill-opacity="1"><g transform="translate(126.046757, 139.994702)"><g><path d="M 24.5 -76.203125 L 24.5 -95.25 L 100.703125 -95.25 L 100.703125 -76.203125 Z M 34.015625 0 C 28.847656 0 24.085938 -1.289062 19.734375 -3.875 C 15.378906 -6.457031 11.90625 -9.925781 9.3125 -14.28125 C 6.726562 -18.632812 5.4375 -23.398438 5.4375 -28.578125 L 5.4375 -76.203125 L 24.5 -76.203125 L 24.5 -28.578125 C 24.5 -25.941406 25.445312 -23.691406 27.34375 -21.828125 C 29.25 -19.972656 31.472656 -19.046875 34.015625 -19.046875 L 100.703125 -19.046875 L 100.703125 0 Z M 33.890625 -38.109375 L 33.890625 -57.15625 L 91.171875 -57.15625 L 91.171875 -38.109375 Z M 33.890625 -38.109375 "/></g></g></g><g fill="#ff00ff" fill-opacity="1"><g transform="translate(246.120548, 133.208521)"><g/></g></g><g fill="#00ffff" fill-opacity="1"><g transform="translate(232.206788, 139.994702)"><g/></g></g><g fill="#ffffff" fill-opacity="1"><g transform="translate(7.814524, 136.601611)"><g><path d="M 5.4375 -19.046875 L 5.4375 -95.25 L 24.5 -95.25 L 24.5 -19.046875 Z M 100.703125 -19.046875 L 100.703125 -95.25 L 119.75 -95.25 L 119.75 -19.046875 Z M 24.5 0 L 24.5 -19.046875 C 26.675781 -19.046875 28.535156 -19.835938 30.078125 -21.421875 C 31.617188 -23.015625 32.929688 -25.082031 34.015625 -27.625 C 35.109375 -30.164062 36.039062 -32.929688 36.8125 -35.921875 C 37.582031 -38.921875 38.285156 -41.828125 38.921875 -44.640625 C 39.921875 -48.628906 41.007812 -52.503906 42.1875 -56.265625 C 43.363281 -60.035156 44.789062 -63.414062 46.46875 -66.40625 C 48.144531 -69.394531 50.273438 -71.773438 52.859375 -73.546875 C 55.453125 -75.316406 58.695312 -76.203125 62.59375 -76.203125 C 66.5 -76.203125 69.765625 -75.296875 72.390625 -73.484375 C 75.023438 -71.671875 77.203125 -69.242188 78.921875 -66.203125 C 80.648438 -63.160156 82.078125 -59.753906 83.203125 -55.984375 C 84.335938 -52.222656 85.363281 -48.441406 86.28125 -44.640625 C 87.269531 -40.734375 88.304688 -36.804688 89.390625 -32.859375 C 90.484375 -28.910156 91.914062 -25.617188 93.6875 -22.984375 C 95.457031 -20.359375 97.796875 -19.046875 100.703125 -19.046875 L 100.703125 0 C 95.253906 0 90.691406 -1.109375 87.015625 -3.328125 C 83.347656 -5.554688 80.332031 -8.570312 77.96875 -12.375 C 75.613281 -16.1875 73.640625 -20.472656 72.046875 -25.234375 C 70.460938 -30.003906 69.035156 -34.972656 67.765625 -40.140625 C 67.128906 -42.859375 66.378906 -45.804688 65.515625 -48.984375 C 64.660156 -52.160156 63.6875 -54.65625 62.59375 -56.46875 C 61.414062 -54.5625 60.394531 -51.972656 59.53125 -48.703125 C 58.664062 -45.441406 57.960938 -42.585938 57.421875 -40.140625 C 56.242188 -34.972656 54.835938 -29.984375 53.203125 -25.171875 C 51.566406 -20.367188 49.546875 -16.082031 47.140625 -12.3125 C 44.742188 -8.550781 41.707031 -5.554688 38.03125 -3.328125 C 34.351562 -1.109375 29.84375 0 24.5 0 Z M 24.5 0 "/></g></g></g><g fill="#ffffff" fill-opacity="1"><g transform="translate(133.003637, 136.601611)"><g><path d="M 24.5 -76.203125 L 24.5 -95.25 L 100.703125 -95.25 L 100.703125 -76.203125 Z M 34.015625 0 C 28.847656 0 24.085938 -1.289062 19.734375 -3.875 C 15.378906 -6.457031 11.90625 -9.925781 9.3125 -14.28125 C 6.726562 -18.632812 5.4375 -23.398438 5.4375 -28.578125 L 5.4375 -76.203125 L 24.5 -76.203125 L 24.5 -28.578125 C 24.5 -25.941406 25.445312 -23.691406 27.34375 -21.828125 C 29.25 -19.972656 31.472656 -19.046875 34.015625 -19.046875 L 100.703125 -19.046875 L 100.703125 0 Z M 33.890625 -38.109375 L 33.890625 -57.15625 L 91.171875 -57.15625 L 91.171875 -38.109375 Z M 33.890625 -38.109375 "/></g></g></g><g fill="#ffffff" fill-opacity="1"><g transform="translate(239.163668, 136.601611)"><g/></g></g></g></g></svg>