<svg xmlns="http://www.w3.org/2000/svg" xmlns:xlink="http://www.w3.org/1999/xlink" zoomAndPan="magnify" preserveAspectRatio="xMidYMid meet" version="1.0" viewBox="24 148.31 313.28 78.38"><defs><g/><clipPath id="fe012490c7"><path d="M 23.996094 148.308594 L 102.375 148.308594 L 102.375 226.691406 L 23.996094 226.691406 Z M 23.996094 148.308594 " clip-rule="nonzero"/></clipPath><clipPath id="98f7cb4022"><path d="M 63.1875 148.308594 C 41.542969 148.308594 23.996094 165.855469 23.996094 187.5 C 23.996094 209.144531 41.542969 226.691406 63.1875 226.691406 C 84.828125 226.691406 102.375 209.144531 102.375 187.5 C 102.375 165.855469 84.828125 148.308594 63.1875 148.308594 Z M 63.1875 148.308594 " clip-rule="nonzero"/></clipPath><clipPath id="43f5a6e72f"><path d="M 0.996094 0.308594 L 79.375 0.308594 L 79.375 78.691406 L 0.996094 78.691406 Z M 0.996094 0.308594 " clip-rule="nonzero"/></clipPath><clipPath id="8752f82435"><path d="M 40.1875 0.308594 C 18.542969 0.308594 0.996094 17.855469 0.996094 39.5 C 0.996094 61.144531 18.542969 78.691406 40.1875 78.691406 C 61.828125 78.691406 79.375 61.144531 79.375 39.5 C 79.375 17.855469 61.828125 0.308594 40.1875 0.308594 Z M 40.1875 0.308594 " clip-rule="nonzero"/></clipPath><clipPath id="08665ced68"><rect x="0" width="80" y="0" height="79"/></clipPath><clipPath id="df2a9e660a"><path d="M 54 29 L 54.71875 29 L 54.71875 30 L 54 30 Z M 54 29 " clip-rule="nonzero"/></clipPath><clipPath id="355f79a717"><rect x="0" width="55" y="0" height="37"/></clipPath></defs><g clip-path="url(#fe012490c7)"><g clip-path="url(#98f7cb4022)"><g transform="matrix(1, 0, 0, 1, 23, 148)"><g clip-path="url(#08665ced68)"><g clip-path="url(#43f5a6e72f)"><g clip-path="url(#8752f82435)"><path fill="#4f39f6" d="M 0.996094 0.308594 L 79.375 0.308594 L 79.375 78.691406 L 0.996094 78.691406 Z M 0.996094 0.308594 " fill-opacity="1" fill-rule="nonzero"/></g></g></g></g></g></g><g transform="matrix(1, 0, 0, 1, 36, 169)"><g clip-path="url(#355f79a717)"><g fill="#ff00ff" fill-opacity="1"><g transform="translate(3.23011, 29.444828)"><g><path d="M 1.203125 -4.203125 L 1.203125 -20.984375 L 5.390625 -20.984375 L 5.390625 -4.203125 Z M 22.1875 -4.203125 L 22.1875 -20.984375 L 26.390625 -20.984375 L 26.390625 -4.203125 Z M 5.390625 0 L 5.390625 -4.203125 C 5.867188 -4.203125 6.28125 -4.375 6.625 -4.71875 C 6.96875 -5.070312 7.257812 -5.523438 7.5 -6.078125 C 7.738281 -6.640625 7.941406 -7.25 8.109375 -7.90625 C 8.273438 -8.570312 8.429688 -9.210938 8.578125 -9.828125 C 8.796875 -10.710938 9.035156 -11.566406 9.296875 -12.390625 C 9.554688 -13.222656 9.867188 -13.96875 10.234375 -14.625 C 10.609375 -15.289062 11.078125 -15.816406 11.640625 -16.203125 C 12.210938 -16.597656 12.929688 -16.796875 13.796875 -16.796875 C 14.648438 -16.796875 15.367188 -16.59375 15.953125 -16.1875 C 16.535156 -15.789062 17.015625 -15.253906 17.390625 -14.578125 C 17.765625 -13.910156 18.078125 -13.160156 18.328125 -12.328125 C 18.578125 -11.503906 18.804688 -10.671875 19.015625 -9.828125 C 19.234375 -8.972656 19.460938 -8.109375 19.703125 -7.234375 C 19.941406 -6.367188 20.253906 -5.644531 20.640625 -5.0625 C 21.035156 -4.488281 21.550781 -4.203125 22.1875 -4.203125 L 22.1875 0 C 20.988281 0 19.984375 -0.242188 19.171875 -0.734375 C 18.359375 -1.222656 17.691406 -1.882812 17.171875 -2.71875 C 16.660156 -3.5625 16.226562 -4.507812 15.875 -5.5625 C 15.53125 -6.613281 15.21875 -7.707031 14.9375 -8.84375 C 14.789062 -9.445312 14.625 -10.097656 14.4375 -10.796875 C 14.25 -11.492188 14.035156 -12.039062 13.796875 -12.4375 C 13.535156 -12.019531 13.304688 -11.453125 13.109375 -10.734375 C 12.921875 -10.015625 12.769531 -9.382812 12.65625 -8.84375 C 12.394531 -7.707031 12.082031 -6.609375 11.71875 -5.546875 C 11.363281 -4.484375 10.921875 -3.535156 10.390625 -2.703125 C 9.859375 -1.878906 9.1875 -1.222656 8.375 -0.734375 C 7.570312 -0.242188 6.578125 0 5.390625 0 Z M 5.390625 0 "/></g></g></g><g fill="#ff00ff" fill-opacity="1"><g transform="translate(30.807707, 29.444828)"><g><path d="M 5.390625 -16.796875 L 5.390625 -20.984375 L 22.1875 -20.984375 L 22.1875 -16.796875 Z M 7.5 0 C 6.351562 0 5.300781 -0.28125 4.34375 -0.84375 C 3.382812 -1.414062 2.617188 -2.179688 2.046875 -3.140625 C 1.484375 -4.109375 1.203125 -5.160156 1.203125 -6.296875 L 1.203125 -16.796875 L 5.390625 -16.796875 L 5.390625 -6.296875 C 5.390625 -5.710938 5.597656 -5.21875 6.015625 -4.8125 C 6.441406 -4.40625 6.9375 -4.203125 7.5 -4.203125 L 22.1875 -4.203125 L 22.1875 0 Z M 7.46875 -8.390625 L 7.46875 -12.59375 L 20.09375 -12.59375 L 20.09375 -8.390625 Z M 7.46875 -8.390625 "/></g></g></g><g fill="#00ffff" fill-opacity="1"><g transform="translate(0.164987, 30.939789)"><g><path d="M 1.203125 -4.203125 L 1.203125 -20.984375 L 5.390625 -20.984375 L 5.390625 -4.203125 Z M 22.1875 -4.203125 L 22.1875 -20.984375 L 26.390625 -20.984375 L 26.390625 -4.203125 Z M 5.390625 0 L 5.390625 -4.203125 C 5.867188 -4.203125 6.28125 -4.375 6.625 -4.71875 C 6.96875 -5.070312 7.257812 -5.523438 7.5 -6.078125 C 7.738281 -6.640625 7.941406 -7.25 8.109375 -7.90625 C 8.273438 -8.570312 8.429688 -9.210938 8.578125 -9.828125 C 8.796875 -10.710938 9.035156 -11.566406 9.296875 -12.390625 C 9.554688 -13.222656 9.867188 -13.96875 10.234375 -14.625 C 10.609375 -15.289062 11.078125 -15.816406 11.640625 -16.203125 C 12.210938 -16.597656 12.929688 -16.796875 13.796875 -16.796875 C 14.648438 -16.796875 15.367188 -16.59375 15.953125 -16.1875 C 16.535156 -15.789062 17.015625 -15.253906 17.390625 -14.578125 C 17.765625 -13.910156 18.078125 -13.160156 18.328125 -12.328125 C 18.578125 -11.503906 18.804688 -10.671875 19.015625 -9.828125 C 19.234375 -8.972656 19.460938 -8.109375 19.703125 -7.234375 C 19.941406 -6.367188 20.253906 -5.644531 20.640625 -5.0625 C 21.035156 -4.488281 21.550781 -4.203125 22.1875 -4.203125 L 22.1875 0 C 20.988281 0 19.984375 -0.242188 19.171875 -0.734375 C 18.359375 -1.222656 17.691406 -1.882812 17.171875 -2.71875 C 16.660156 -3.5625 16.226562 -4.507812 15.875 -5.5625 C 15.53125 -6.613281 15.21875 -7.707031 14.9375 -8.84375 C 14.789062 -9.445312 14.625 -10.097656 14.4375 -10.796875 C 14.25 -11.492188 14.035156 -12.039062 13.796875 -12.4375 C 13.535156 -12.019531 13.304688 -11.453125 13.109375 -10.734375 C 12.921875 -10.015625 12.769531 -9.382812 12.65625 -8.84375 C 12.394531 -7.707031 12.082031 -6.609375 11.71875 -5.546875 C 11.363281 -4.484375 10.921875 -3.535156 10.390625 -2.703125 C 9.859375 -1.878906 9.1875 -1.222656 8.375 -0.734375 C 7.570312 -0.242188 6.578125 0 5.390625 0 Z M 5.390625 0 "/></g></g></g><g fill="#00ffff" fill-opacity="1"><g transform="translate(27.742584, 30.939789)"><g><path d="M 5.390625 -16.796875 L 5.390625 -20.984375 L 22.1875 -20.984375 L 22.1875 -16.796875 Z M 7.5 0 C 6.351562 0 5.300781 -0.28125 4.34375 -0.84375 C 3.382812 -1.414062 2.617188 -2.179688 2.046875 -3.140625 C 1.484375 -4.109375 1.203125 -5.160156 1.203125 -6.296875 L 1.203125 -16.796875 L 5.390625 -16.796875 L 5.390625 -6.296875 C 5.390625 -5.710938 5.597656 -5.21875 6.015625 -4.8125 C 6.441406 -4.40625 6.9375 -4.203125 7.5 -4.203125 L 22.1875 -4.203125 L 22.1875 0 Z M 7.46875 -8.390625 L 7.46875 -12.59375 L 20.09375 -12.59375 L 20.09375 -8.390625 Z M 7.46875 -8.390625 "/></g></g></g><g clip-path="url(#df2a9e660a)"><g fill="#ff00ff" fill-opacity="1"><g transform="translate(54.194262, 29.444828)"><g/></g></g></g><g fill="#00ffff" fill-opacity="1"><g transform="translate(51.129139, 30.939789)"><g/></g></g><g fill="#ffffff" fill-opacity="1"><g transform="translate(1.697549, 30.192308)"><g><path d="M 1.203125 -4.203125 L 1.203125 -20.984375 L 5.390625 -20.984375 L 5.390625 -4.203125 Z M 22.1875 -4.203125 L 22.1875 -20.984375 L 26.390625 -20.984375 L 26.390625 -4.203125 Z M 5.390625 0 L 5.390625 -4.203125 C 5.867188 -4.203125 6.28125 -4.375 6.625 -4.71875 C 6.96875 -5.070312 7.257812 -5.523438 7.5 -6.078125 C 7.738281 -6.640625 7.941406 -7.25 8.109375 -7.90625 C 8.273438 -8.570312 8.429688 -9.210938 8.578125 -9.828125 C 8.796875 -10.710938 9.035156 -11.566406 9.296875 -12.390625 C 9.554688 -13.222656 9.867188 -13.96875 10.234375 -14.625 C 10.609375 -15.289062 11.078125 -15.816406 11.640625 -16.203125 C 12.210938 -16.597656 12.929688 -16.796875 13.796875 -16.796875 C 14.648438 -16.796875 15.367188 -16.59375 15.953125 -16.1875 C 16.535156 -15.789062 17.015625 -15.253906 17.390625 -14.578125 C 17.765625 -13.910156 18.078125 -13.160156 18.328125 -12.328125 C 18.578125 -11.503906 18.804688 -10.671875 19.015625 -9.828125 C 19.234375 -8.972656 19.460938 -8.109375 19.703125 -7.234375 C 19.941406 -6.367188 20.253906 -5.644531 20.640625 -5.0625 C 21.035156 -4.488281 21.550781 -4.203125 22.1875 -4.203125 L 22.1875 0 C 20.988281 0 19.984375 -0.242188 19.171875 -0.734375 C 18.359375 -1.222656 17.691406 -1.882812 17.171875 -2.71875 C 16.660156 -3.5625 16.226562 -4.507812 15.875 -5.5625 C 15.53125 -6.613281 15.21875 -7.707031 14.9375 -8.84375 C 14.789062 -9.445312 14.625 -10.097656 14.4375 -10.796875 C 14.25 -11.492188 14.035156 -12.039062 13.796875 -12.4375 C 13.535156 -12.019531 13.304688 -11.453125 13.109375 -10.734375 C 12.921875 -10.015625 12.769531 -9.382812 12.65625 -8.84375 C 12.394531 -7.707031 12.082031 -6.609375 11.71875 -5.546875 C 11.363281 -4.484375 10.921875 -3.535156 10.390625 -2.703125 C 9.859375 -1.878906 9.1875 -1.222656 8.375 -0.734375 C 7.570312 -0.242188 6.578125 0 5.390625 0 Z M 5.390625 0 "/></g></g></g><g fill="#ffffff" fill-opacity="1"><g transform="translate(29.275146, 30.192308)"><g><path d="M 5.390625 -16.796875 L 5.390625 -20.984375 L 22.1875 -20.984375 L 22.1875 -16.796875 Z M 7.5 0 C 6.351562 0 5.300781 -0.28125 4.34375 -0.84375 C 3.382812 -1.414062 2.617188 -2.179688 2.046875 -3.140625 C 1.484375 -4.109375 1.203125 -5.160156 1.203125 -6.296875 L 1.203125 -16.796875 L 5.390625 -16.796875 L 5.390625 -6.296875 C 5.390625 -5.710938 5.597656 -5.21875 6.015625 -4.8125 C 6.441406 -4.40625 6.9375 -4.203125 7.5 -4.203125 L 22.1875 -4.203125 L 22.1875 0 Z M 7.46875 -8.390625 L 7.46875 -12.59375 L 20.09375 -12.59375 L 20.09375 -8.390625 Z M 7.46875 -8.390625 "/></g></g></g><g fill="#ffffff" fill-opacity="1"><g transform="translate(52.661701, 30.192308)"><g/></g></g></g></g><g fill="#ff00ff" fill-opacity="1"><g transform="translate(113.644589, 198.009889)"><g><path d="M 9.625 0 L 9.625 -14.6875 C 9.625 -15.269531 9.410156 -15.765625 8.984375 -16.171875 C 8.566406 -16.585938 8.070312 -16.796875 7.5 -16.796875 L 1.203125 -16.796875 L 1.203125 -20.984375 L 7.5 -20.984375 C 8.65625 -20.984375 9.707031 -20.695312 10.65625 -20.125 C 11.601562 -19.5625 12.363281 -18.804688 12.9375 -17.859375 C 13.507812 -16.910156 13.796875 -15.851562 13.796875 -14.6875 L 13.796875 0 Z M 13.796875 -16.796875 L 13.796875 -20.984375 L 22.1875 -20.984375 L 22.1875 -16.796875 Z M 13.796875 -16.796875 "/></g></g></g><g fill="#ff00ff" fill-opacity="1"><g transform="translate(137.026297, 198.009889)"><g><path d="M 5.390625 -16.796875 L 5.390625 -20.984375 L 22.1875 -20.984375 L 22.1875 -16.796875 Z M 7.5 0 C 6.351562 0 5.300781 -0.28125 4.34375 -0.84375 C 3.382812 -1.414062 2.617188 -2.179688 2.046875 -3.140625 C 1.484375 -4.109375 1.203125 -5.160156 1.203125 -6.296875 L 1.203125 -16.796875 L 5.390625 -16.796875 L 5.390625 -6.296875 C 5.390625 -5.710938 5.597656 -5.21875 6.015625 -4.8125 C 6.441406 -4.40625 6.9375 -4.203125 7.5 -4.203125 L 22.1875 -4.203125 L 22.1875 0 Z M 7.46875 -8.390625 L 7.46875 -12.59375 L 20.09375 -12.59375 L 20.09375 -8.390625 Z M 7.46875 -8.390625 "/></g></g></g><g fill="#ff00ff" fill-opacity="1"><g transform="translate(160.408005, 198.009889)"><g><path d="M 1.203125 -4.203125 L 1.203125 -14.6875 C 1.203125 -15.851562 1.484375 -16.910156 2.046875 -17.859375 C 2.617188 -18.804688 3.378906 -19.5625 4.328125 -20.125 C 5.273438 -20.695312 6.332031 -20.984375 7.5 -20.984375 L 17.984375 -20.984375 L 17.984375 -16.796875 L 7.5 -16.796875 C 6.914062 -16.796875 6.414062 -16.585938 6 -16.171875 C 5.59375 -15.765625 5.390625 -15.269531 5.390625 -14.6875 L 5.390625 -4.203125 Z M 17.984375 -12.59375 L 17.984375 -16.796875 L 22.1875 -16.796875 L 22.1875 -12.59375 Z M 5.390625 0 L 5.390625 -4.203125 L 17.984375 -4.203125 L 17.984375 -6.296875 L 22.1875 -6.296875 L 22.1875 0 Z M 5.390625 0 "/></g></g></g><g fill="#ff00ff" fill-opacity="1"><g transform="translate(183.789713, 198.009889)"><g><path d="M 1.203125 -10.5 L 1.203125 -20.984375 L 5.375 -20.984375 L 5.375 -10.5 Z M 18.015625 0 L 18.015625 -20.984375 L 22.1875 -20.984375 L 22.1875 0 Z M 1.203125 0 L 1.203125 -4.203125 C 1.203125 -5.359375 1.484375 -6.410156 2.046875 -7.359375 C 2.617188 -8.304688 3.378906 -9.066406 4.328125 -9.640625 C 5.273438 -10.210938 6.332031 -10.5 7.5 -10.5 L 15.890625 -10.5 L 15.890625 -6.296875 L 7.5 -6.296875 C 6.914062 -6.296875 6.414062 -6.085938 6 -5.671875 C 5.59375 -5.265625 5.390625 -4.773438 5.390625 -4.203125 L 5.390625 0 Z M 1.203125 0 "/></g></g></g><g fill="#ff00ff" fill-opacity="1"><g transform="translate(207.171422, 198.009889)"><g/></g></g><g fill="#ff00ff" fill-opacity="1"><g transform="translate(219.162037, 198.009889)"><g><path d="M 1.203125 -4.203125 L 1.203125 -20.984375 L 5.390625 -20.984375 L 5.390625 -4.203125 Z M 22.1875 -4.203125 L 22.1875 -20.984375 L 26.390625 -20.984375 L 26.390625 -4.203125 Z M 5.390625 0 L 5.390625 -4.203125 C 5.867188 -4.203125 6.28125 -4.375 6.625 -4.71875 C 6.96875 -5.070312 7.257812 -5.523438 7.5 -6.078125 C 7.738281 -6.640625 7.941406 -7.25 8.109375 -7.90625 C 8.273438 -8.570312 8.429688 -9.210938 8.578125 -9.828125 C 8.796875 -10.710938 9.035156 -11.566406 9.296875 -12.390625 C 9.554688 -13.222656 9.867188 -13.96875 10.234375 -14.625 C 10.609375 -15.289062 11.078125 -15.816406 11.640625 -16.203125 C 12.210938 -16.597656 12.929688 -16.796875 13.796875 -16.796875 C 14.648438 -16.796875 15.367188 -16.59375 15.953125 -16.1875 C 16.535156 -15.789062 17.015625 -15.253906 17.390625 -14.578125 C 17.765625 -13.910156 18.078125 -13.160156 18.328125 -12.328125 C 18.578125 -11.503906 18.804688 -10.671875 19.015625 -9.828125 C 19.234375 -8.972656 19.460938 -8.109375 19.703125 -7.234375 C 19.941406 -6.367188 20.253906 -5.644531 20.640625 -5.0625 C 21.035156 -4.488281 21.550781 -4.203125 22.1875 -4.203125 L 22.1875 0 C 20.988281 0 19.984375 -0.242188 19.171875 -0.734375 C 18.359375 -1.222656 17.691406 -1.882812 17.171875 -2.71875 C 16.660156 -3.5625 16.226562 -4.507812 15.875 -5.5625 C 15.53125 -6.613281 15.21875 -7.707031 14.9375 -8.84375 C 14.789062 -9.445312 14.625 -10.097656 14.4375 -10.796875 C 14.25 -11.492188 14.035156 -12.039062 13.796875 -12.4375 C 13.535156 -12.019531 13.304688 -11.453125 13.109375 -10.734375 C 12.921875 -10.015625 12.769531 -9.382812 12.65625 -8.84375 C 12.394531 -7.707031 12.082031 -6.609375 11.71875 -5.546875 C 11.363281 -4.484375 10.921875 -3.535156 10.390625 -2.703125 C 9.859375 -1.878906 9.1875 -1.222656 8.375 -0.734375 C 7.570312 -0.242188 6.578125 0 5.390625 0 Z M 5.390625 0 "/></g></g></g><g fill="#ff00ff" fill-opacity="1"><g transform="translate(246.740454, 198.009889)"><g><path d="M 17.984375 -4.203125 L 17.984375 -14.6875 C 17.984375 -15.269531 17.78125 -15.765625 17.375 -16.171875 C 16.96875 -16.585938 16.472656 -16.796875 15.890625 -16.796875 L 5.390625 -16.796875 L 5.390625 -20.984375 L 15.890625 -20.984375 C 17.046875 -20.984375 18.097656 -20.695312 19.046875 -20.125 C 20.003906 -19.5625 20.765625 -18.804688 21.328125 -17.859375 C 21.898438 -16.910156 22.1875 -15.851562 22.1875 -14.6875 L 22.1875 -4.203125 Z M 7.5 0 C 6.332031 0 5.273438 -0.28125 4.328125 -0.84375 C 3.378906 -1.414062 2.617188 -2.175781 2.046875 -3.125 C 1.484375 -4.082031 1.203125 -5.140625 1.203125 -6.296875 L 1.203125 -16.796875 L 5.390625 -16.796875 L 5.390625 -6.296875 C 5.390625 -5.710938 5.59375 -5.21875 6 -4.8125 C 6.414062 -4.40625 6.914062 -4.203125 7.5 -4.203125 L 17.984375 -4.203125 L 17.984375 0 Z M 7.5 0 "/></g></g></g><g fill="#ff00ff" fill-opacity="1"><g transform="translate(270.122162, 198.009889)"><g><path d="M 17.984375 0 L 17.984375 -4.203125 C 17.984375 -4.773438 17.78125 -5.265625 17.375 -5.671875 C 16.96875 -6.085938 16.472656 -6.296875 15.890625 -6.296875 L 7.5 -6.296875 L 7.5 -10.5 L 15.890625 -10.5 C 16.472656 -10.5 16.96875 -10.703125 17.375 -11.109375 C 17.78125 -11.515625 17.984375 -12.007812 17.984375 -12.59375 L 17.984375 -14.6875 C 17.984375 -15.269531 17.78125 -15.765625 17.375 -16.171875 C 16.96875 -16.585938 16.472656 -16.796875 15.890625 -16.796875 L 5.390625 -16.796875 L 5.390625 -20.984375 L 15.890625 -20.984375 C 17.046875 -20.984375 18.097656 -20.695312 19.046875 -20.125 C 20.003906 -19.5625 20.765625 -18.804688 21.328125 -17.859375 C 21.898438 -16.910156 22.1875 -15.851562 22.1875 -14.6875 L 22.1875 -12.59375 C 22.1875 -11.789062 22.039062 -11.03125 21.75 -10.3125 C 21.457031 -9.59375 21.0625 -8.953125 20.5625 -8.390625 C 21.0625 -7.835938 21.457031 -7.203125 21.75 -6.484375 C 22.039062 -5.773438 22.1875 -5.015625 22.1875 -4.203125 L 22.1875 0 Z M 1.203125 0 L 1.203125 -16.796875 L 5.390625 -16.796875 L 5.390625 0 Z M 1.203125 0 "/></g></g></g><g fill="#ff00ff" fill-opacity="1"><g transform="translate(293.50387, 198.009889)"><g><path d="M 7.5 0 C 6.332031 0 5.273438 -0.28125 4.328125 -0.84375 C 3.378906 -1.414062 2.617188 -2.175781 2.046875 -3.125 C 1.484375 -4.082031 1.203125 -5.140625 1.203125 -6.296875 L 1.203125 -20.984375 L 5.390625 -20.984375 L 5.390625 -6.296875 C 5.390625 -5.710938 5.59375 -5.21875 6 -4.8125 C 6.414062 -4.40625 6.914062 -4.203125 7.5 -4.203125 L 20.390625 -4.203125 L 20.390625 0 Z M 7.5 0 "/></g></g></g><g fill="#ff00ff" fill-opacity="1"><g transform="translate(315.086979, 198.009889)"><g><path d="M 17.984375 -4.203125 L 17.984375 -14.6875 C 17.984375 -15.269531 17.78125 -15.765625 17.375 -16.171875 C 16.96875 -16.585938 16.472656 -16.796875 15.890625 -16.796875 L 5.390625 -16.796875 L 5.390625 -20.984375 L 15.890625 -20.984375 C 17.046875 -20.984375 18.097656 -20.695312 19.046875 -20.125 C 20.003906 -19.5625 20.765625 -18.804688 21.328125 -17.859375 C 21.898438 -16.910156 22.1875 -15.851562 22.1875 -14.6875 L 22.1875 -4.203125 Z M 1.203125 0 L 1.203125 -16.796875 L 5.390625 -16.796875 L 5.390625 -4.203125 L 17.984375 -4.203125 L 17.984375 0 Z M 1.203125 0 "/></g></g></g><g fill="#00ffff" fill-opacity="1"><g transform="translate(110.579477, 199.504849)"><g><path d="M 9.625 0 L 9.625 -14.6875 C 9.625 -15.269531 9.410156 -15.765625 8.984375 -16.171875 C 8.566406 -16.585938 8.070312 -16.796875 7.5 -16.796875 L 1.203125 -16.796875 L 1.203125 -20.984375 L 7.5 -20.984375 C 8.65625 -20.984375 9.707031 -20.695312 10.65625 -20.125 C 11.601562 -19.5625 12.363281 -18.804688 12.9375 -17.859375 C 13.507812 -16.910156 13.796875 -15.851562 13.796875 -14.6875 L 13.796875 0 Z M 13.796875 -16.796875 L 13.796875 -20.984375 L 22.1875 -20.984375 L 22.1875 -16.796875 Z M 13.796875 -16.796875 "/></g></g></g><g fill="#00ffff" fill-opacity="1"><g transform="translate(133.961185, 199.504849)"><g><path d="M 5.390625 -16.796875 L 5.390625 -20.984375 L 22.1875 -20.984375 L 22.1875 -16.796875 Z M 7.5 0 C 6.351562 0 5.300781 -0.28125 4.34375 -0.84375 C 3.382812 -1.414062 2.617188 -2.179688 2.046875 -3.140625 C 1.484375 -4.109375 1.203125 -5.160156 1.203125 -6.296875 L 1.203125 -16.796875 L 5.390625 -16.796875 L 5.390625 -6.296875 C 5.390625 -5.710938 5.597656 -5.21875 6.015625 -4.8125 C 6.441406 -4.40625 6.9375 -4.203125 7.5 -4.203125 L 22.1875 -4.203125 L 22.1875 0 Z M 7.46875 -8.390625 L 7.46875 -12.59375 L 20.09375 -12.59375 L 20.09375 -8.390625 Z M 7.46875 -8.390625 "/></g></g></g><g fill="#00ffff" fill-opacity="1"><g transform="translate(157.342893, 199.504849)"><g><path d="M 1.203125 -4.203125 L 1.203125 -14.6875 C 1.203125 -15.851562 1.484375 -16.910156 2.046875 -17.859375 C 2.617188 -18.804688 3.378906 -19.5625 4.328125 -20.125 C 5.273438 -20.695312 6.332031 -20.984375 7.5 -20.984375 L 17.984375 -20.984375 L 17.984375 -16.796875 L 7.5 -16.796875 C 6.914062 -16.796875 6.414062 -16.585938 6 -16.171875 C 5.59375 -15.765625 5.390625 -15.269531 5.390625 -14.6875 L 5.390625 -4.203125 Z M 17.984375 -12.59375 L 17.984375 -16.796875 L 22.1875 -16.796875 L 22.1875 -12.59375 Z M 5.390625 0 L 5.390625 -4.203125 L 17.984375 -4.203125 L 17.984375 -6.296875 L 22.1875 -6.296875 L 22.1875 0 Z M 5.390625 0 "/></g></g></g><g fill="#00ffff" fill-opacity="1"><g transform="translate(180.724602, 199.504849)"><g><path d="M 1.203125 -10.5 L 1.203125 -20.984375 L 5.375 -20.984375 L 5.375 -10.5 Z M 18.015625 0 L 18.015625 -20.984375 L 22.1875 -20.984375 L 22.1875 0 Z M 1.203125 0 L 1.203125 -4.203125 C 1.203125 -5.359375 1.484375 -6.410156 2.046875 -7.359375 C 2.617188 -8.304688 3.378906 -9.066406 4.328125 -9.640625 C 5.273438 -10.210938 6.332031 -10.5 7.5 -10.5 L 15.890625 -10.5 L 15.890625 -6.296875 L 7.5 -6.296875 C 6.914062 -6.296875 6.414062 -6.085938 6 -5.671875 C 5.59375 -5.265625 5.390625 -4.773438 5.390625 -4.203125 L 5.390625 0 Z M 1.203125 0 "/></g></g></g><g fill="#00ffff" fill-opacity="1"><g transform="translate(204.10631, 199.504849)"><g/></g></g><g fill="#00ffff" fill-opacity="1"><g transform="translate(216.096925, 199.504849)"><g><path d="M 1.203125 -4.203125 L 1.203125 -20.984375 L 5.390625 -20.984375 L 5.390625 -4.203125 Z M 22.1875 -4.203125 L 22.1875 -20.984375 L 26.390625 -20.984375 L 26.390625 -4.203125 Z M 5.390625 0 L 5.390625 -4.203125 C 5.867188 -4.203125 6.28125 -4.375 6.625 -4.71875 C 6.96875 -5.070312 7.257812 -5.523438 7.5 -6.078125 C 7.738281 -6.640625 7.941406 -7.25 8.109375 -7.90625 C 8.273438 -8.570312 8.429688 -9.210938 8.578125 -9.828125 C 8.796875 -10.710938 9.035156 -11.566406 9.296875 -12.390625 C 9.554688 -13.222656 9.867188 -13.96875 10.234375 -14.625 C 10.609375 -15.289062 11.078125 -15.816406 11.640625 -16.203125 C 12.210938 -16.597656 12.929688 -16.796875 13.796875 -16.796875 C 14.648438 -16.796875 15.367188 -16.59375 15.953125 -16.1875 C 16.535156 -15.789062 17.015625 -15.253906 17.390625 -14.578125 C 17.765625 -13.910156 18.078125 -13.160156 18.328125 -12.328125 C 18.578125 -11.503906 18.804688 -10.671875 19.015625 -9.828125 C 19.234375 -8.972656 19.460938 -8.109375 19.703125 -7.234375 C 19.941406 -6.367188 20.253906 -5.644531 20.640625 -5.0625 C 21.035156 -4.488281 21.550781 -4.203125 22.1875 -4.203125 L 22.1875 0 C 20.988281 0 19.984375 -0.242188 19.171875 -0.734375 C 18.359375 -1.222656 17.691406 -1.882812 17.171875 -2.71875 C 16.660156 -3.5625 16.226562 -4.507812 15.875 -5.5625 C 15.53125 -6.613281 15.21875 -7.707031 14.9375 -8.84375 C 14.789062 -9.445312 14.625 -10.097656 14.4375 -10.796875 C 14.25 -11.492188 14.035156 -12.039062 13.796875 -12.4375 C 13.535156 -12.019531 13.304688 -11.453125 13.109375 -10.734375 C 12.921875 -10.015625 12.769531 -9.382812 12.65625 -8.84375 C 12.394531 -7.707031 12.082031 -6.609375 11.71875 -5.546875 C 11.363281 -4.484375 10.921875 -3.535156 10.390625 -2.703125 C 9.859375 -1.878906 9.1875 -1.222656 8.375 -0.734375 C 7.570312 -0.242188 6.578125 0 5.390625 0 Z M 5.390625 0 "/></g></g></g><g fill="#00ffff" fill-opacity="1"><g transform="translate(243.675342, 199.504849)"><g><path d="M 17.984375 -4.203125 L 17.984375 -14.6875 C 17.984375 -15.269531 17.78125 -15.765625 17.375 -16.171875 C 16.96875 -16.585938 16.472656 -16.796875 15.890625 -16.796875 L 5.390625 -16.796875 L 5.390625 -20.984375 L 15.890625 -20.984375 C 17.046875 -20.984375 18.097656 -20.695312 19.046875 -20.125 C 20.003906 -19.5625 20.765625 -18.804688 21.328125 -17.859375 C 21.898438 -16.910156 22.1875 -15.851562 22.1875 -14.6875 L 22.1875 -4.203125 Z M 7.5 0 C 6.332031 0 5.273438 -0.28125 4.328125 -0.84375 C 3.378906 -1.414062 2.617188 -2.175781 2.046875 -3.125 C 1.484375 -4.082031 1.203125 -5.140625 1.203125 -6.296875 L 1.203125 -16.796875 L 5.390625 -16.796875 L 5.390625 -6.296875 C 5.390625 -5.710938 5.59375 -5.21875 6 -4.8125 C 6.414062 -4.40625 6.914062 -4.203125 7.5 -4.203125 L 17.984375 -4.203125 L 17.984375 0 Z M 7.5 0 "/></g></g></g><g fill="#00ffff" fill-opacity="1"><g transform="translate(267.05705, 199.504849)"><g><path d="M 17.984375 0 L 17.984375 -4.203125 C 17.984375 -4.773438 17.78125 -5.265625 17.375 -5.671875 C 16.96875 -6.085938 16.472656 -6.296875 15.890625 -6.296875 L 7.5 -6.296875 L 7.5 -10.5 L 15.890625 -10.5 C 16.472656 -10.5 16.96875 -10.703125 17.375 -11.109375 C 17.78125 -11.515625 17.984375 -12.007812 17.984375 -12.59375 L 17.984375 -14.6875 C 17.984375 -15.269531 17.78125 -15.765625 17.375 -16.171875 C 16.96875 -16.585938 16.472656 -16.796875 15.890625 -16.796875 L 5.390625 -16.796875 L 5.390625 -20.984375 L 15.890625 -20.984375 C 17.046875 -20.984375 18.097656 -20.695312 19.046875 -20.125 C 20.003906 -19.5625 20.765625 -18.804688 21.328125 -17.859375 C 21.898438 -16.910156 22.1875 -15.851562 22.1875 -14.6875 L 22.1875 -12.59375 C 22.1875 -11.789062 22.039062 -11.03125 21.75 -10.3125 C 21.457031 -9.59375 21.0625 -8.953125 20.5625 -8.390625 C 21.0625 -7.835938 21.457031 -7.203125 21.75 -6.484375 C 22.039062 -5.773438 22.1875 -5.015625 22.1875 -4.203125 L 22.1875 0 Z M 1.203125 0 L 1.203125 -16.796875 L 5.390625 -16.796875 L 5.390625 0 Z M 1.203125 0 "/></g></g></g><g fill="#00ffff" fill-opacity="1"><g transform="translate(290.438758, 199.504849)"><g><path d="M 7.5 0 C 6.332031 0 5.273438 -0.28125 4.328125 -0.84375 C 3.378906 -1.414062 2.617188 -2.175781 2.046875 -3.125 C 1.484375 -4.082031 1.203125 -5.140625 1.203125 -6.296875 L 1.203125 -20.984375 L 5.390625 -20.984375 L 5.390625 -6.296875 C 5.390625 -5.710938 5.59375 -5.21875 6 -4.8125 C 6.414062 -4.40625 6.914062 -4.203125 7.5 -4.203125 L 20.390625 -4.203125 L 20.390625 0 Z M 7.5 0 "/></g></g></g><g fill="#00ffff" fill-opacity="1"><g transform="translate(312.021868, 199.504849)"><g><path d="M 17.984375 -4.203125 L 17.984375 -14.6875 C 17.984375 -15.269531 17.78125 -15.765625 17.375 -16.171875 C 16.96875 -16.585938 16.472656 -16.796875 15.890625 -16.796875 L 5.390625 -16.796875 L 5.390625 -20.984375 L 15.890625 -20.984375 C 17.046875 -20.984375 18.097656 -20.695312 19.046875 -20.125 C 20.003906 -19.5625 20.765625 -18.804688 21.328125 -17.859375 C 21.898438 -16.910156 22.1875 -15.851562 22.1875 -14.6875 L 22.1875 -4.203125 Z M 1.203125 0 L 1.203125 -16.796875 L 5.390625 -16.796875 L 5.390625 -4.203125 L 17.984375 -4.203125 L 17.984375 0 Z M 1.203125 0 "/></g></g></g><g fill="#ff00ff" fill-opacity="1"><g transform="translate(338.468797, 198.009889)"><g/></g></g><g fill="#00ffff" fill-opacity="1"><g transform="translate(335.403685, 199.504849)"><g/></g></g><g fill="#ffffff" fill-opacity="1"><g transform="translate(112.112033, 198.757369)"><g><path d="M 9.625 0 L 9.625 -14.6875 C 9.625 -15.269531 9.410156 -15.765625 8.984375 -16.171875 C 8.566406 -16.585938 8.070312 -16.796875 7.5 -16.796875 L 1.203125 -16.796875 L 1.203125 -20.984375 L 7.5 -20.984375 C 8.65625 -20.984375 9.707031 -20.695312 10.65625 -20.125 C 11.601562 -19.5625 12.363281 -18.804688 12.9375 -17.859375 C 13.507812 -16.910156 13.796875 -15.851562 13.796875 -14.6875 L 13.796875 0 Z M 13.796875 -16.796875 L 13.796875 -20.984375 L 22.1875 -20.984375 L 22.1875 -16.796875 Z M 13.796875 -16.796875 "/></g></g></g><g fill="#ffffff" fill-opacity="1"><g transform="translate(135.493741, 198.757369)"><g><path d="M 5.390625 -16.796875 L 5.390625 -20.984375 L 22.1875 -20.984375 L 22.1875 -16.796875 Z M 7.5 0 C 6.351562 0 5.300781 -0.28125 4.34375 -0.84375 C 3.382812 -1.414062 2.617188 -2.179688 2.046875 -3.140625 C 1.484375 -4.109375 1.203125 -5.160156 1.203125 -6.296875 L 1.203125 -16.796875 L 5.390625 -16.796875 L 5.390625 -6.296875 C 5.390625 -5.710938 5.597656 -5.21875 6.015625 -4.8125 C 6.441406 -4.40625 6.9375 -4.203125 7.5 -4.203125 L 22.1875 -4.203125 L 22.1875 0 Z M 7.46875 -8.390625 L 7.46875 -12.59375 L 20.09375 -12.59375 L 20.09375 -8.390625 Z M 7.46875 -8.390625 "/></g></g></g><g fill="#ffffff" fill-opacity="1"><g transform="translate(158.875449, 198.757369)"><g><path d="M 1.203125 -4.203125 L 1.203125 -14.6875 C 1.203125 -15.851562 1.484375 -16.910156 2.046875 -17.859375 C 2.617188 -18.804688 3.378906 -19.5625 4.328125 -20.125 C 5.273438 -20.695312 6.332031 -20.984375 7.5 -20.984375 L 17.984375 -20.984375 L 17.984375 -16.796875 L 7.5 -16.796875 C 6.914062 -16.796875 6.414062 -16.585938 6 -16.171875 C 5.59375 -15.765625 5.390625 -15.269531 5.390625 -14.6875 L 5.390625 -4.203125 Z M 17.984375 -12.59375 L 17.984375 -16.796875 L 22.1875 -16.796875 L 22.1875 -12.59375 Z M 5.390625 0 L 5.390625 -4.203125 L 17.984375 -4.203125 L 17.984375 -6.296875 L 22.1875 -6.296875 L 22.1875 0 Z M 5.390625 0 "/></g></g></g><g fill="#ffffff" fill-opacity="1"><g transform="translate(182.257158, 198.757369)"><g><path d="M 1.203125 -10.5 L 1.203125 -20.984375 L 5.375 -20.984375 L 5.375 -10.5 Z M 18.015625 0 L 18.015625 -20.984375 L 22.1875 -20.984375 L 22.1875 0 Z M 1.203125 0 L 1.203125 -4.203125 C 1.203125 -5.359375 1.484375 -6.410156 2.046875 -7.359375 C 2.617188 -8.304688 3.378906 -9.066406 4.328125 -9.640625 C 5.273438 -10.210938 6.332031 -10.5 7.5 -10.5 L 15.890625 -10.5 L 15.890625 -6.296875 L 7.5 -6.296875 C 6.914062 -6.296875 6.414062 -6.085938 6 -5.671875 C 5.59375 -5.265625 5.390625 -4.773438 5.390625 -4.203125 L 5.390625 0 Z M 1.203125 0 "/></g></g></g><g fill="#ffffff" fill-opacity="1"><g transform="translate(205.638866, 198.757369)"><g/></g></g><g fill="#ffffff" fill-opacity="1"><g transform="translate(217.629481, 198.757369)"><g><path d="M 1.203125 -4.203125 L 1.203125 -20.984375 L 5.390625 -20.984375 L 5.390625 -4.203125 Z M 22.1875 -4.203125 L 22.1875 -20.984375 L 26.390625 -20.984375 L 26.390625 -4.203125 Z M 5.390625 0 L 5.390625 -4.203125 C 5.867188 -4.203125 6.28125 -4.375 6.625 -4.71875 C 6.96875 -5.070312 7.257812 -5.523438 7.5 -6.078125 C 7.738281 -6.640625 7.941406 -7.25 8.109375 -7.90625 C 8.273438 -8.570312 8.429688 -9.210938 8.578125 -9.828125 C 8.796875 -10.710938 9.035156 -11.566406 9.296875 -12.390625 C 9.554688 -13.222656 9.867188 -13.96875 10.234375 -14.625 C 10.609375 -15.289062 11.078125 -15.816406 11.640625 -16.203125 C 12.210938 -16.597656 12.929688 -16.796875 13.796875 -16.796875 C 14.648438 -16.796875 15.367188 -16.59375 15.953125 -16.1875 C 16.535156 -15.789062 17.015625 -15.253906 17.390625 -14.578125 C 17.765625 -13.910156 18.078125 -13.160156 18.328125 -12.328125 C 18.578125 -11.503906 18.804688 -10.671875 19.015625 -9.828125 C 19.234375 -8.972656 19.460938 -8.109375 19.703125 -7.234375 C 19.941406 -6.367188 20.253906 -5.644531 20.640625 -5.0625 C 21.035156 -4.488281 21.550781 -4.203125 22.1875 -4.203125 L 22.1875 0 C 20.988281 0 19.984375 -0.242188 19.171875 -0.734375 C 18.359375 -1.222656 17.691406 -1.882812 17.171875 -2.71875 C 16.660156 -3.5625 16.226562 -4.507812 15.875 -5.5625 C 15.53125 -6.613281 15.21875 -7.707031 14.9375 -8.84375 C 14.789062 -9.445312 14.625 -10.097656 14.4375 -10.796875 C 14.25 -11.492188 14.035156 -12.039062 13.796875 -12.4375 C 13.535156 -12.019531 13.304688 -11.453125 13.109375 -10.734375 C 12.921875 -10.015625 12.769531 -9.382812 12.65625 -8.84375 C 12.394531 -7.707031 12.082031 -6.609375 11.71875 -5.546875 C 11.363281 -4.484375 10.921875 -3.535156 10.390625 -2.703125 C 9.859375 -1.878906 9.1875 -1.222656 8.375 -0.734375 C 7.570312 -0.242188 6.578125 0 5.390625 0 Z M 5.390625 0 "/></g></g></g><g fill="#ffffff" fill-opacity="1"><g transform="translate(245.207898, 198.757369)"><g><path d="M 17.984375 -4.203125 L 17.984375 -14.6875 C 17.984375 -15.269531 17.78125 -15.765625 17.375 -16.171875 C 16.96875 -16.585938 16.472656 -16.796875 15.890625 -16.796875 L 5.390625 -16.796875 L 5.390625 -20.984375 L 15.890625 -20.984375 C 17.046875 -20.984375 18.097656 -20.695312 19.046875 -20.125 C 20.003906 -19.5625 20.765625 -18.804688 21.328125 -17.859375 C 21.898438 -16.910156 22.1875 -15.851562 22.1875 -14.6875 L 22.1875 -4.203125 Z M 7.5 0 C 6.332031 0 5.273438 -0.28125 4.328125 -0.84375 C 3.378906 -1.414062 2.617188 -2.175781 2.046875 -3.125 C 1.484375 -4.082031 1.203125 -5.140625 1.203125 -6.296875 L 1.203125 -16.796875 L 5.390625 -16.796875 L 5.390625 -6.296875 C 5.390625 -5.710938 5.59375 -5.21875 6 -4.8125 C 6.414062 -4.40625 6.914062 -4.203125 7.5 -4.203125 L 17.984375 -4.203125 L 17.984375 0 Z M 7.5 0 "/></g></g></g><g fill="#ffffff" fill-opacity="1"><g transform="translate(268.589606, 198.757369)"><g><path d="M 17.984375 0 L 17.984375 -4.203125 C 17.984375 -4.773438 17.78125 -5.265625 17.375 -5.671875 C 16.96875 -6.085938 16.472656 -6.296875 15.890625 -6.296875 L 7.5 -6.296875 L 7.5 -10.5 L 15.890625 -10.5 C 16.472656 -10.5 16.96875 -10.703125 17.375 -11.109375 C 17.78125 -11.515625 17.984375 -12.007812 17.984375 -12.59375 L 17.984375 -14.6875 C 17.984375 -15.269531 17.78125 -15.765625 17.375 -16.171875 C 16.96875 -16.585938 16.472656 -16.796875 15.890625 -16.796875 L 5.390625 -16.796875 L 5.390625 -20.984375 L 15.890625 -20.984375 C 17.046875 -20.984375 18.097656 -20.695312 19.046875 -20.125 C 20.003906 -19.5625 20.765625 -18.804688 21.328125 -17.859375 C 21.898438 -16.910156 22.1875 -15.851562 22.1875 -14.6875 L 22.1875 -12.59375 C 22.1875 -11.789062 22.039062 -11.03125 21.75 -10.3125 C 21.457031 -9.59375 21.0625 -8.953125 20.5625 -8.390625 C 21.0625 -7.835938 21.457031 -7.203125 21.75 -6.484375 C 22.039062 -5.773438 22.1875 -5.015625 22.1875 -4.203125 L 22.1875 0 Z M 1.203125 0 L 1.203125 -16.796875 L 5.390625 -16.796875 L 5.390625 0 Z M 1.203125 0 "/></g></g></g><g fill="#ffffff" fill-opacity="1"><g transform="translate(291.971314, 198.757369)"><g><path d="M 7.5 0 C 6.332031 0 5.273438 -0.28125 4.328125 -0.84375 C 3.378906 -1.414062 2.617188 -2.175781 2.046875 -3.125 C 1.484375 -4.082031 1.203125 -5.140625 1.203125 -6.296875 L 1.203125 -20.984375 L 5.390625 -20.984375 L 5.390625 -6.296875 C 5.390625 -5.710938 5.59375 -5.21875 6 -4.8125 C 6.414062 -4.40625 6.914062 -4.203125 7.5 -4.203125 L 20.390625 -4.203125 L 20.390625 0 Z M 7.5 0 "/></g></g></g><g fill="#ffffff" fill-opacity="1"><g transform="translate(313.554424, 198.757369)"><g><path d="M 17.984375 -4.203125 L 17.984375 -14.6875 C 17.984375 -15.269531 17.78125 -15.765625 17.375 -16.171875 C 16.96875 -16.585938 16.472656 -16.796875 15.890625 -16.796875 L 5.390625 -16.796875 L 5.390625 -20.984375 L 15.890625 -20.984375 C 17.046875 -20.984375 18.097656 -20.695312 19.046875 -20.125 C 20.003906 -19.5625 20.765625 -18.804688 21.328125 -17.859375 C 21.898438 -16.910156 22.1875 -15.851562 22.1875 -14.6875 L 22.1875 -4.203125 Z M 1.203125 0 L 1.203125 -16.796875 L 5.390625 -16.796875 L 5.390625 -4.203125 L 17.984375 -4.203125 L 17.984375 0 Z M 1.203125 0 "/></g></g></g><g fill="#ffffff" fill-opacity="1"><g transform="translate(336.936241, 198.757369)"><g/></g></g></svg>